<?xml version="1.0" encoding="UTF-8" standalone="no"?>
<!-- Created with Inkscape (http://www.inkscape.org/) -->

<svg
   width="1200"
   height="627"
   viewBox="0 0 317.49999 165.89375"
   version="1.1"
   id="svg5"
   inkscape:export-filename="/home/pandas/ドキュメント/kessya/banner/banner.png"
   inkscape:export-xdpi="96"
   inkscape:export-ydpi="96"
   inkscape:version="1.1.2 (0a00cf5339, 2022-02-04)"
   sodipodi:docname="ogp.svg"
   xmlns:inkscape="http://www.inkscape.org/namespaces/inkscape"
   xmlns:sodipodi="http://sodipodi.sourceforge.net/DTD/sodipodi-0.dtd"
   xmlns="http://www.w3.org/2000/svg"
   xmlns:svg="http://www.w3.org/2000/svg">
  <sodipodi:namedview
     id="namedview7"
     pagecolor="#ffffff"
     bordercolor="#666666"
     borderopacity="1.0"
     inkscape:pageshadow="2"
     inkscape:pageopacity="0.0"
     inkscape:pagecheckerboard="0"
     inkscape:document-units="mm"
     showgrid="false"
     units="px"
     width="1200px"
     showguides="false"
     inkscape:zoom="0.38395763"
     inkscape:cx="661.53133"
     inkscape:cy="194.03183"
     inkscape:window-width="1860"
     inkscape:window-height="1043"
     inkscape:window-x="0"
     inkscape:window-y="0"
     inkscape:window-maximized="1"
     inkscape:current-layer="layer1">
    <inkscape:grid
       type="xygrid"
       id="grid9886" />
  </sodipodi:namedview>
  <defs
     id="defs2">
    <rect
       x="158.23258"
       y="342.21992"
       width="976.72566"
       height="131.8419"
       id="rect2894" />
    <clipPath
       clipPathUnits="userSpaceOnUse"
       id="clipPath9919">
      <rect
         style="fill:#71c837;fill-opacity:1;stroke:#ffffff;stroke-width:0.0539882"
         id="rect9921"
         width="371.4906"
         height="110.17799"
         x="-51.290806"
         y="102.95201"
         transform="rotate(-5.0995043)" />
    </clipPath>
    <clipPath
       clipPathUnits="userSpaceOnUse"
       id="clipPath10414">
      <path
         style="fill:#000000;stroke-width:0.721839"
         d="m 152.60889,428.52843 v -4.33102 h -8.50922 c -13.11237,0 -58.627429,-3.17397 -68.88537,-4.8037 -2.678541,-0.42553 -2.68519,-0.42015 -3.160069,2.54956 -0.477462,2.98587 -1.735051,4.16038 -1.735051,1.62046 0,-0.74554 -0.503221,-2.55992 -1.118269,-4.03196 -1.571572,-3.76126 -1.055301,-20.75878 1.031258,-33.95279 1.448761,-9.16103 1.785941,-21.27964 0.62438,-22.44119 -0.18723,-0.18722 -1.418899,-0.47691 -2.737059,-0.64373 -1.478439,-0.18711 -3.298449,-1.21581 -4.750469,-2.68507 -2.176661,-2.20247 -2.3704,-2.78889 -2.57424,-7.79126 -0.219832,-5.39488 -0.227261,-5.41277 -2.74687,-6.6116 -1.389541,-0.66114 -3.640632,-2.20599 -5.002421,-3.43302 -1.3618,-1.227 -2.713879,-2.23094 -3.00464,-2.23094 -0.290751,0 -2.343629,-1.80054 -4.561941,-4.00121 -4.03162,-3.99952 -4.033308,-4.00307 -4.038079,-8.48162 -0.005,-4.43957 1.233279,-15.02804 2.000819,-17.11259 0.21926,-0.59552 0.361032,-1.28458 0.315032,-1.53127 -0.046,-0.24667 -0.227211,-1.22116 -0.40268,-2.16551 -0.175462,-0.94435 -1.456622,-4.31565 -2.84701,-7.49173 -4.236331,-9.67714 -5.018421,-12.58935 -4.98975,-18.57994 0.0205,-4.27964 0.363529,-6.13749 1.46617,-7.94023 0.791689,-1.29439 2.6152,-5.41242 4.052239,-9.15119 1.437039,-3.73879 4.386479,-10.23534 6.554319,-14.43679 8.912831,-17.27384 9.064292,-17.74924 10.137622,-31.82064 1.715,-22.48369 3.13191,-29.33199 9.334259,-45.11498 7.158299,-18.21558 11.85785,-25.72341 17.646819,-28.19187 1.521212,-0.64866 1.80979,-1.29276 1.94046,-4.33104 0.277201,-6.445 0.18053,-6.34225 3.46049,-3.67839 3.581432,2.90868 12.416741,8.90972 17.526711,11.90431 l 3.7516,2.19855 0.40771,-3.02665 c 0.22424,-1.66465 0.26622,-3.6763 0.0933,-4.47033 -0.17293,-0.79402 -0.33928,-2.18965 -0.36965,-3.10139 -0.0362,-1.08556 -0.83946,-2.08212 -2.32739,-2.88736 -1.24968,-0.6763 -3.36106,-2.15657 -4.69195,-3.28948 -4.15205,-3.53439 -2.46944,0.0466 2.6306,5.59866 l 3.25075,3.53883 -2.72467,-2.01392 c -1.49857,-1.10766 -4.83477,-4.32427 -7.41378,-7.14802 -4.208421,-4.6078 -4.645881,-4.91212 -4.267439,-2.96859 0.372589,1.91349 0.227309,1.8068 -1.248291,-0.91669 -1.68859,-3.11657 -12.370729,-13.29142 -16.879779,-16.07817 -1.346912,-0.83244 -2.779681,-1.30911 -3.18393,-1.05926 -1.45016,0.89624 -0.691822,-0.92367 1.682848,-4.03865 3.890772,-5.1037 13.099082,-21.403687 19.302032,-34.167274 C 109.19102,45.921343 125.2265,27.421589 144.58434,17.331405 l 5.32946,-2.777954 9.10733,0.01215 c 8.18685,0.01092 9.56541,0.203922 13.63961,1.909545 7.7056,3.225871 12.39974,6.476562 19.63589,13.597853 9.93933,9.781567 17.41354,20.930823 23.42947,34.949699 5.00269,11.657722 10.75113,34.328275 10.81402,42.648052 0.0329,4.3569 -0.30376,5.73719 -2.44442,10.02103 l -2.48263,4.96814 1.9692,1.57018 c 2.21363,1.76507 1.90333,2.5694 -0.99123,2.5694 -2.08807,0 -6.14768,-3.84453 -8.14834,-7.71665 -2.3104,-4.4716 -4.76872,-17.69106 -4.80691,-25.848885 -0.0299,-6.383801 -1.12816,-8.568502 -1.78496,-3.55065 -0.25561,1.95286 -0.75592,5.01238 -1.1118,6.798929 -0.35588,1.786551 -0.86098,4.709996 -1.12245,6.496546 -0.77386,5.28756 -3.5058,14.82496 -7.43076,25.94132 -4.87341,13.80258 -4.26414,14.82998 1.09681,1.84951 1.31172,-3.1761 2.3909,-5.40736 2.39817,-4.95836 0.0265,1.63554 -3.7656,10.86541 -6.5867,16.03204 -1.59135,2.91443 -2.78755,5.40272 -2.65823,5.52955 0.12933,0.12683 1.10664,-0.47116 2.17181,-1.32885 2.71945,-2.18974 6.88046,-9.38554 8.54799,-14.78239 2.51172,-8.12902 2.98661,-7.81453 2.62481,1.73823 -0.20994,5.54294 -0.8048,10.23135 -1.6305,12.85077 -1.38457,4.39237 -5.42907,9.82247 -7.31606,9.82247 -1.0259,0 -1.02307,-0.12742 0.0287,-1.28963 1.63846,-1.81047 3.40004,-6.26606 3.25751,-8.23923 -0.0659,-0.91281 0.1207,-2.39051 0.41472,-3.28379 0.77232,-2.3464 -0.47576,-1.99547 -1.98405,0.55786 -0.70891,1.2001 -2.07547,2.69735 -3.03679,3.32723 -0.96132,0.62989 -1.56906,1.43454 -1.35054,1.78812 0.36782,0.59515 -0.68626,0.9539 -2.08751,0.71048 -0.32727,-0.0568 -0.39689,0.21724 -0.15472,0.60908 0.52948,0.85672 -4.22672,4.09406 -7.01002,4.77144 -2.5929,0.63104 -2.55945,-0.5104 0.0488,-1.66492 2.34612,-1.0385 4.63802,-4.85246 5.79616,-9.64543 0.44332,-1.83469 1.01623,-3.88351 1.27311,-4.55295 0.36274,-0.94527 -0.12331,-0.81651 -2.17592,0.57643 l -2.64298,1.79357 -5.1994,-1.44082 c -4.90704,-1.35981 -6.66505,-2.06343 -5.15556,-2.06343 0.36655,0 1.7846,0.32068 3.15122,0.71263 2.8374,0.81375 3.61235,0.16084 3.63028,-3.0586 0.007,-1.19951 0.40457,-1.98506 1.00543,-1.98506 0.54691,0 1.39875,-0.48724 1.89298,-1.08276 0.56666,-0.68278 0.61505,-1.08276 0.13099,-1.08276 -0.42219,0 -0.97165,0.33012 -1.22102,0.73361 -0.64084,1.03689 -1.75402,0.17351 -2.66498,-2.06695 l -0.77861,-1.91494 -0.47961,1.8046 c -0.47249,1.77782 -0.49229,1.76855 -1.33374,-0.6243 -0.46978,-1.33589 -0.67644,-2.71641 -0.45926,-3.06782 0.52622,-0.85144 0.0212,-0.80545 -2.1828,0.19879 -1.72709,0.78691 -1.83856,1.1589 -1.83856,6.13564 0,2.91385 -0.28984,5.29792 -0.64408,5.29792 -0.57171,0 -2.06404,-5.38327 -3.34947,-12.08253 -0.64739,-3.37392 -1.60748,-3.52886 -2.42272,-0.39098 -1.33476,5.13747 -1.2415,8.01392 0.30018,9.25969 1.0323,0.83414 0.75513,0.78911 -1.00737,-0.16368 -3.75833,-2.03173 -4.58762,-3.80751 -4.30846,-9.22574 0.13388,-2.59835 -0.0542,-4.82271 -0.41795,-4.94304 -0.36375,-0.12033 1.4228,-0.9733 3.97012,-1.8955 10.30263,-3.72986 16.35626,-8.11046 19.95922,-14.44315 1.02944,-1.80939 2.68816,-4.179687 3.68603,-5.267326 2.71829,-2.96282 1.26766,-3.298621 -2.23129,-0.516509 l -3.06754,2.439085 3.79987,-4.192447 c 2.08993,-2.305838 4.59685,-5.5524 5.57095,-7.214568 1.94487,-3.318661 4.16676,-9.110462 3.49502,-9.110462 -0.23329,0 -1.49443,0.661472 -2.80254,1.46993 l -2.37839,1.469911 0.8495,-2.2509 c 0.79997,-2.119646 0.70256,-2.382202 -1.67041,-4.502518 l -2.51991,-2.25162 -0.41887,2.491219 c -0.50007,2.97425 -2.28149,6.540839 -3.96472,7.937799 -0.92118,0.764511 -0.84559,0.400389 0.31063,-1.49625 0.84044,-1.37866 1.52929,-2.71239 1.53077,-2.963839 0.005,-0.884711 -3.18156,-1.277774 -4.11031,-0.506971 -0.67698,0.56184 -0.93986,0.553389 -0.93986,-0.0302 0,-0.445622 -0.48725,-0.810223 -1.08276,-0.810223 -0.59552,0 -1.08276,0.324826 -1.08276,0.721841 0,0.39701 -0.32483,0.721842 -0.72184,0.721842 -0.39701,0 -0.72184,-0.487241 -0.72184,-1.082765 0,-1.695196 -1.30764,-1.26773 -1.6561,0.541385 l -0.31282,1.624139 -0.0983,-1.624139 c -0.1588,-2.623683 -1.2739,-1.867779 -2.12969,1.44368 l -0.79284,3.06781 0.22022,-3.756642 c 0.1991,-3.396303 0.0982,-3.691369 -1.05141,-3.076093 -0.6994,0.374308 -1.43672,1.090316 -1.63848,1.59113 -0.23731,0.589055 -0.38696,0.495234 -0.42383,-0.265695 -0.0313,-0.646943 -1.58158,-2.425554 -3.44497,-3.952462 -2.51075,-2.057366 -3.25856,-2.40696 -2.88817,-1.350171 0.97707,2.787771 -3.1202,-2.846772 -5.39308,-7.416512 -1.23415,-2.481326 -2.34619,-4.511498 -2.47121,-4.511498 -0.25488,0 1.25621,4.989166 2.51421,8.301154 l 0.82254,2.165519 -1.46774,-1.804598 c -0.80725,-0.992529 -2.79762,-4.565637 -4.42302,-7.940236 -1.62541,-3.374599 -3.1861,-6.603547 -3.4682,-7.175431 -0.2821,-0.571892 -0.89575,-1.167411 -1.36364,-1.323372 -1.67506,-0.558358 -0.48703,11.3489 1.67619,16.799957 0.40333,1.016357 0.343,1.230024 -0.20385,0.721842 -1.54262,-1.433553 -4.33421,-8.049104 -5.55891,-13.173573 -0.68789,-2.878336 -1.45934,-5.232918 -1.71434,-5.232405 -0.25499,5.29e-4 -0.47489,-1.217594 -0.48866,-2.706899 -0.11305,-12.226333 -0.45115,-17.744612 -1.02696,-16.761513 -1.69812,2.899222 -5.80548,23.13418 -5.80548,28.600778 0,0.478507 1.71437,1.368391 3.80971,1.97753 3.46066,1.006036 9.32167,5.491483 7.1756,5.491483 -0.4646,0 -0.65825,0.559721 -0.43705,1.263219 0.34812,1.107157 0.27844,1.129453 -0.56403,0.180459 -0.52868,-0.595519 -1.55011,-1.545516 -2.26984,-2.111113 -1.20325,-0.94556 -1.27193,-0.882219 -0.85306,0.786696 0.266,1.05982 -0.017,2.839312 -0.68026,4.276632 -0.98374,2.131989 -1.08611,2.199661 -0.76458,0.505405 0.2771,-1.460138 0.004,-2.152989 -1.07894,-2.732302 -1.22496,-0.655574 -1.45019,-0.554559 -1.45019,0.650364 0,0.784561 -0.32483,1.627227 -0.72184,1.872597 -0.39701,0.245366 -0.72184,-0.188344 -0.72184,-0.963801 0,-1.050348 -0.46009,-1.383371 -1.80408,-1.305816 -0.99226,0.05724 -1.80433,0.385601 -1.8046,0.729665 -2.6e-4,0.344064 0.64914,0.455684 1.44316,0.248039 1.57496,-0.411861 1.77603,0.0099 0.7658,1.606418 -0.99823,1.577559 -2.93131,-0.354214 -2.93131,-2.929327 0,-2.441535 -1.35908,-2.721004 -3.22196,-0.66254 -0.87213,0.963692 -1.14742,2.056593 -0.86365,3.428738 0.35999,1.740664 0.2652,1.675715 -0.69815,-0.478377 -0.61308,-1.370889 -0.98966,-3.563478 -0.83685,-4.872419 0.15281,-1.308947 0.20179,-2.379898 0.10886,-2.379898 -0.093,0 -1.00221,0.316788 -2.02058,0.703974 -1.45671,0.553839 -1.85775,1.208093 -1.88049,3.06782 l -0.0289,2.363843 -1.11035,-2.048875 c -0.61069,-1.126879 -1.26748,-1.891739 -1.45954,-1.699688 -0.19205,0.192053 0.0197,3.063017 0.47052,6.379913 0.89069,6.55296 2.55578,11.020849 5.58957,14.998359 l 1.9454,2.550552 -2.31501,-1.648431 c -1.27325,-0.90664 -2.80808,-2.3524 -3.41074,-3.212801 -0.72945,-1.041448 -1.09043,-1.20908 -1.07988,-0.501468 0.0224,1.499159 2.5617,6.921868 3.51818,7.513019 0.43836,0.270909 0.7862,0.87944 0.77299,1.352269 -0.0132,0.472832 -0.63372,0.128831 -1.37892,-0.764439 -1.97274,-2.36473 -2.27654,-2.004849 -1.10667,1.31091 1.33985,3.797557 3.24347,6.541117 8.21368,11.837857 2.22242,2.36843 3.30986,3.69857 2.41655,2.95587 l -1.62422,-1.35036 0.45791,6.45102 c 0.52912,7.45416 -0.78308,18.53141 -2.34917,19.83115 -0.84203,0.69882 -0.93812,0.61719 -0.52888,-0.44929 0.34413,-0.89679 0.23672,-1.14048 -0.34439,-0.78134 -2.05043,1.26723 0.43209,6.27188 6.22218,12.54369 1.54952,1.67842 2.61341,3.05168 2.36421,3.05168 -0.88174,0 -8.59056,-8.36588 -11.97264,-12.99312 l -3.42938,-4.69195 0.51601,2.83579 c 1.28256,7.04846 5.44973,12.4383 11.46747,14.83212 3.03847,1.20868 3.26271,1.40141 1.20603,1.03656 -1.38954,-0.24649 -4.22891,-1.01256 -6.30971,-1.70236 -3.30515,-1.09568 -3.67005,-1.11135 -2.88736,-0.12397 0.49276,0.62161 -0.60202,-0.0817 -2.43283,-1.56289 l -3.32876,-2.69311 -1.22073,3.19644 c -0.6714,1.75805 -1.75169,3.62807 -2.40066,4.15561 -1.01873,0.82813 -1.1157,0.78779 -0.70988,-0.29527 0.25853,-0.68994 0.658,-2.96373 0.88771,-5.05288 l 0.41766,-3.79845 -1.82392,3.3791 c -1.00316,1.8585 -2.15387,3.58301 -2.55715,3.83225 -1.41993,0.87757 -0.68976,1.71278 3.77826,4.32182 2.48133,1.44894 6.94771,4.07229 9.9253,5.82966 2.97759,1.75738 5.65742,3.19847 5.95517,3.20242 0.29776,0.004 0.54138,-0.80489 0.54138,-1.79742 0,-0.99253 0.344,-1.8046 0.76445,-1.8046 0.42044,0 0.58453,0.29109 0.36465,0.64687 -0.21988,0.35577 -0.58922,3.0356 -0.82074,5.95518 -0.23152,2.91956 -1.23255,9.51725 -2.22449,14.66151 -1.55561,8.06747 -1.66033,9.45793 -0.76178,10.11497 0.85852,0.62776 0.87495,0.91757 0.0934,1.64765 -0.59796,0.55858 -1.11156,0.62185 -1.39004,0.17125 -0.74857,-1.21121 -6.32014,-0.76079 -9.7404,0.78744 -8.26881,3.74299 -12.52731,12.47727 -9.79156,20.0827 l 1.14311,3.17788 -3.75689,8.73247 c -3.52914,8.20304 -3.7593,9.1067 -3.79648,14.905 -0.0367,5.71622 0.16034,6.57705 2.66459,11.64456 4.91713,9.95013 14.43937,17.08755 26.97428,20.21863 5.38193,1.34435 8.44541,1.60488 19.04573,1.61975 10.75647,0.0151 13.58852,-0.22378 19.07269,-1.60845 12.25808,-3.09499 20.15541,-8.62687 23.67518,-16.5839 2.70893,-6.12397 1.77639,-18.62444 -2.07683,-27.83949 l -1.76075,-4.21086 1.83912,-3.69065 c 1.01149,-2.02985 1.8391,-4.43893 1.8391,-5.35351 0,-0.91458 0.24362,-1.64877 0.54138,-1.63152 0.29776,0.0173 3.62724,2.92555 7.39885,6.4629 l 6.85748,6.43154 2.09946,-2.07968 2.09947,-2.07969 -0.83625,-5.06364 c -1.42536,-8.6309 -0.80332,-9.32614 2.50427,-2.79894 1.63361,3.2238 1.96285,3.52197 2.61067,2.3644 0.90081,-1.60966 0.37053,-9.25961 -1.60254,-23.11883 -1.46286,-10.27545 -1.71656,-17.32989 -0.85666,-23.8207 0.39326,-2.96856 0.75542,-3.6487 2.04028,-3.83175 1.93024,-0.27497 1.85454,-0.52908 4.2599,14.29842 1.06268,6.55069 2.16813,12.16944 2.45655,12.48611 0.28842,0.31665 0.73959,-4.39335 1.00259,-10.46668 0.263,-6.07333 0.73577,-12.34174 1.05061,-13.92978 l 0.57242,-2.88736 1.00356,3.97012 c 1.09602,4.33591 1.3887,24.91325 0.42608,29.95634 l -0.55113,2.88736 1.86841,-1.74997 c 2.53938,-2.37839 2.37624,-1.02271 -0.20644,1.7156 -2.02395,2.14591 -2.08432,2.43899 -2.46053,11.94472 -0.21212,5.35966 -0.13662,8.93276 0.16778,7.94023 0.52053,-1.69722 0.57029,-1.65427 0.8364,0.72184 0.21445,1.91499 0.69608,0.44433 1.99002,-6.07663 2.14878,-10.82903 2.89135,-23.92866 1.90606,-33.62454 -0.24999,-2.4601 -0.17662,-2.8104 0.3024,-1.44368 0.34788,0.99253 0.69417,3.75356 0.76955,6.13563 0.12573,3.9733 0.19284,4.1379 0.81244,1.99277 0.37145,-1.28605 0.93612,-4.69674 1.2548,-7.57931 0.54991,-4.97413 0.62361,-5.13461 1.44708,-3.15103 0.4772,1.1495 1.06767,4.00372 1.31214,6.3427 l 0.4445,4.25269 1.87944,-1.64812 c 1.81808,-1.59431 1.81463,-1.57621 -0.10561,0.55426 -1.9621,2.17693 -1.98506,2.31696 -1.98506,12.10873 0,13.87437 -2.11934,32.90406 -4.75651,42.70896 -0.75251,2.7978 4.92683,-7.75302 6.34448,-11.78648 0.78989,-2.24739 2.14159,-9.1043 3.00378,-15.23759 l 1.5676,-11.15142 3.50299,7.53831 c 7.38147,15.88467 10.68302,25.17773 11.08458,31.20036 0.52317,7.84666 -0.81416,13.49498 -4.4538,18.81097 -3.89352,5.68681 -5.31121,6.63261 -13.79132,9.20087 -6.83681,2.07058 -9.1917,2.2746 -12.06617,1.04526 -1.91921,-0.82079 -1.58462,1.11991 0.72184,4.18682 1.85401,2.46531 2.17568,2.60996 4.87241,2.1911 5.13711,-0.79793 16.99541,-5.31799 21.62897,-8.24434 2.48229,-1.56771 5.16725,-2.85038 5.96656,-2.85038 0.79932,0 2.85629,1.24502 4.57103,2.76672 3.02752,2.68668 3.09086,2.83165 2.18882,5.00933 -0.51091,1.23341 -2.82096,4.04728 -5.13345,6.25306 l -4.20458,4.01047 -7.4558,-0.0678 c -4.10068,-0.0373 -8.39442,0.17317 -9.54164,0.46768 -1.90509,0.48908 -1.62358,0.67183 3.24828,2.10878 5.43153,1.60205 10.73343,3.93112 13.20067,5.79892 1.30675,0.98928 1.31518,1.17986 0.18257,4.12777 -1.87936,4.89156 -3.91554,7.78258 -5.4814,7.78258 -0.78299,0 -3.30518,-1.89661 -5.60486,-4.2147 -2.29969,-2.3181 -5.48056,-5.06653 -7.06861,-6.10767 -3.70416,-2.42845 -11.10004,-4.36766 -13.4053,-3.51488 -1.61131,0.59605 -1.54917,0.67921 1.15941,1.55101 3.83957,1.23587 10.44129,4.45497 10.44129,5.09132 0,0.2811 -1.8499,2.3463 -4.11089,4.58931 -3.31264,3.28633 -5.00939,4.35575 -8.73811,5.50743 -2.54497,0.78608 -5.30762,1.42923 -6.13923,1.42923 -5.04965,0 8.61223,4.12342 18.98823,5.73103 2.97759,0.46136 7.72082,1.59078 10.5405,2.50984 4.75455,1.54972 5.2309,1.58636 6.56187,0.50472 1.65209,-1.34258 2.58628,-3.60561 4.20619,-10.18929 1.48162,-6.0216 6.20319,-20.37027 6.57929,-19.99419 0.15806,0.15811 -0.094,2.8521 -0.56025,5.98667 -0.65501,4.40399 -0.64455,9.10839 0.046,20.69955 l 0.8936,15.00028 -1.87518,3.19977 c -1.03137,1.75987 -3.22237,4.26895 -4.8689,5.5757 -6.61018,5.24613 -9.05155,8.47098 -9.95447,13.14905 -0.46554,2.41202 -1.00733,5.18017 -1.20398,6.1514 -0.56382,2.78466 -4.95373,6.39085 -9.32766,7.66239 -2.16101,0.62822 -4.22549,1.69603 -4.58775,2.37291 -0.90189,1.68521 -0.92097,13.58085 -0.0337,21.0425 0.40126,3.3746 0.91944,11.366 1.1515,17.75867 0.37391,10.30002 0.28866,11.67419 -0.74888,12.07231 -0.64394,0.24712 -1.55343,1.35091 -2.02108,2.45284 l -0.85027,2.00356 -0.2696,-1.98506 c -0.31192,-2.29659 -0.68745,-2.34458 -10.27947,-1.31392 -9.36626,1.00639 -49.73542,2.89089 -62.61958,2.92317 l -5.95523,0.0148 v 3.9701 c 0,3.4889 -0.17499,3.97013 -1.44368,3.97013 -1.28327,0 -1.44368,-0.48123 -1.44368,-4.33105 z m 81.02489,-49.0206 c 1.31865,-1.20772 -10.91501,-30.27466 -16.44396,-39.07052 -0.88268,-1.40422 -2.59807,-4.52064 -3.81198,-6.92539 l -2.2071,-4.37226 -7.74558,-0.47393 c -4.26007,-0.26064 -7.90658,-0.31292 -8.10334,-0.11615 -0.66662,0.66662 7.66374,14.75878 17.44025,29.50305 1.80756,2.72603 5.23932,8.9257 7.62614,13.77702 l 4.33969,8.82062 4.18305,-0.32403 c 2.30068,-0.17822 4.42596,-0.5465 4.72283,-0.81841 z M 90.086709,363.20196 c 4.043252,-7.94023 8.99133,-16.87301 10.995731,-19.85058 4.62522,-6.87086 9.93711,-15.8496 9.57575,-16.18591 -0.15231,-0.14174 -3.33701,-0.37463 -7.07714,-0.51753 l -6.800221,-0.25979 -7.08768,13.35402 c -3.89822,7.34473 -9.076078,18.31078 -11.506369,24.36903 -2.43028,6.05824 -4.707451,11.19343 -5.060381,11.41158 -1.599589,0.98859 -0.311798,1.70421 3.50888,1.9499 2.28282,0.14679 4.589211,0.24421 5.125321,0.21648 0.536101,-0.0277 4.28285,-6.54695 8.326109,-14.4872 z M 237.76806,334.26683 c 3.5353,-1.04987 5.79262,-2.42215 5.79262,-3.5215 0,-0.24082 -0.63468,-0.0982 -1.4104,0.31695 -2.17236,1.16263 -9.48307,1.71071 -12.33033,0.92442 -2.33582,-0.64505 -2.5538,-0.57565 -2.57079,0.81844 -0.0103,0.83778 0.32622,1.76189 0.74762,2.05356 1.27901,0.88527 5.69864,0.61757 9.77128,-0.59187 z M 221.38904,223.94399 c -0.37751,-4.99153 -0.5481,-5.52224 -1.40039,-4.35667 -0.53379,0.72999 -0.97052,2.25009 -0.97052,3.378 0,2.10233 1.93888,7.5245 2.49262,6.97075 0.16949,-0.16948 0.11472,-2.86592 -0.12171,-5.99208 z m -33.91415,-86.49736 c 2.76774,-3.74274 3.05722,-4.64858 0.86506,-2.70689 -1.12057,0.99253 -1.80343,1.39856 -1.51747,0.9023 0.31541,-0.54738 0.10503,-0.9023 -0.53483,-0.9023 -1.08941,0 -2.84905,3.88102 -2.09949,4.63059 0.82793,0.82793 1.57546,0.39041 3.28673,-1.9237 z m -80.01335,-5.77471 c -1.91302,-2.08431 -3.56418,-3.90758 -3.66926,-4.05171 -0.10507,-0.14413 -0.151,0.50553 -0.10206,1.44368 0.11144,2.13579 1.04761,3.38321 3.8037,5.06829 3.6226,2.21485 3.61334,1.51191 -0.0324,-2.46026 z m 97.75864,-0.9023 c -0.0528,-2.50488 -0.13746,-2.64831 -0.63884,-1.08276 -0.31786,0.99253 -0.60534,2.77908 -0.63883,3.97012 -0.0464,1.6495 0.10584,1.90751 0.63883,1.08276 0.38486,-0.59552 0.67233,-2.38207 0.63884,-3.97012 z m -31.18484,-1.21811 c -0.23043,-0.57583 -0.40147,-0.40479 -0.43611,0.43612 -0.0313,0.76093 0.13926,1.18727 0.37913,0.94741 0.23986,-0.23986 0.2655,-0.86245 0.057,-1.38353 z m 11.05634,-0.62909 c 0,-0.81746 -0.31065,-1.2943 -0.69032,-1.05964 -0.37967,0.23465 -0.50733,0.90347 -0.28369,1.48628 0.57258,1.49212 0.97401,1.31629 0.97401,-0.42664 z m 36.81381,-3.1173 c 0,-0.14989 -0.56845,-0.71834 -1.26322,-1.26322 -1.14488,-0.89787 -1.17041,-0.87234 -0.27253,0.27254 0.94299,1.20241 1.53575,1.58479 1.53575,0.99068 z m -2.60764,-5.36683 c -0.2531,-1.26548 -0.7444,-2.30086 -1.09178,-2.30086 -1.08879,0 -0.68999,-1.05995 0.73321,-1.94875 1.20026,-0.74958 1.32902,-0.66173 1.06794,0.72866 -0.27791,1.47999 -0.25619,1.48877 0.33989,0.13733 0.81375,-1.84497 0.29032,-3.24189 -1.22575,-3.27124 -1.04926,-0.0203 -1.06002,-0.12432 -0.0933,-0.90229 1.5019,-1.20867 3.59927,-4.5855 3.59927,-5.79495 0,-0.54796 0.66197,-1.59535 1.47102,-2.32754 1.57945,-1.42938 1.59658,-1.07955 -0.52244,-10.673256 -0.59809,-2.70782 -1.20866,-4.802082 -1.35682,-4.653912 -0.14817,0.148161 -0.75812,3.50054 -1.35546,7.44973 -1.14742,7.585878 -3.72109,18.573088 -4.8591,20.743858 -0.49268,0.93979 -0.24756,1.98785 0.89868,3.8425 1.81775,2.94118 3.0802,2.39855 2.39464,-1.02928 z m -1.00156,1.97861 c 0,-0.42536 -0.48724,-1.26064 -1.08275,-1.85616 -0.59552,-0.59551 -1.07554,-1.46558 -1.06671,-1.93349 0.0211,-1.11871 2.8344,2.48825 2.85525,3.66075 0.009,0.49627 -0.14636,0.9023 -0.34487,0.9023 -0.1985,0 -0.36092,-0.34802 -0.36092,-0.7734 z m 0.51269,-11.49787 c 0.20765,-0.79402 0.6759,-1.44368 1.04058,-1.44368 0.36631,0 0.31727,0.64611 -0.10959,1.44368 -0.42494,0.79402 -0.89321,1.44368 -1.04057,1.44368 -0.14737,0 -0.0981,-0.64966 0.10958,-1.44368 z m -26.95692,3.78962 c -0.0534,-3.07682 -0.1346,-7.46198 -0.18046,-9.74479 -0.0458,-2.28282 -0.32713,-4.15058 -0.62506,-4.15058 -0.29793,0 -0.45392,3.65431 -0.34665,8.12069 0.17249,7.18137 0.57124,11.36905 1.08255,11.36894 0.0917,-2e-5 0.12303,-2.51744 0.0697,-5.59426 z m 3.73279,-17.547456 c 1.12747,-1.824281 -0.48906,-1.373272 -2.69013,0.750549 l -2.38925,2.305387 2.30021,-1.140467 c 1.26511,-0.62726 2.51574,-1.489231 2.77917,-1.915469 z m 11.17436,-15.375242 c 1.22202,-3.200119 2.89334,-8.430014 3.71408,-11.621987 0.82072,-3.191968 1.59309,-5.914676 1.71636,-6.05046 0.12328,-0.135784 0.0868,2.950078 -0.0811,6.857476 -0.22846,5.318226 -0.12611,6.559913 0.40711,4.938835 1.35081,-4.106712 1.70576,-10.822925 0.63287,-11.974785 -0.54335,-0.583348 -1.95459,-3.00009 -3.13608,-5.370524 -2.34862,-4.712083 -11.86316,-15.047785 -12.43557,-13.508836 -0.18551,0.49874 -0.58831,0.751657 -0.8951,0.562044 -0.62348,-0.385331 -2.20624,8.287189 -2.20624,12.088828 0,1.91497 0.39524,2.632067 1.8046,3.274222 0.99253,0.452225 1.80359,1.072811 1.80237,1.379082 -0.001,0.306268 -1.13258,2.801011 -2.51413,5.543878 l -2.5119,4.987017 2.69459,2.334364 2.69459,2.334358 0.53529,-6.171989 c 0.36554,-4.214611 0.28028,-6.479275 -0.26884,-7.140921 -0.47154,-0.568175 -0.51126,-0.968931 -0.096,-0.968931 0.38946,0 1.10485,-2.517418 1.58975,-5.594257 1.25933,-7.990787 1.31285,-8.150299 1.39263,-4.150577 0.0738,3.700301 -0.94981,17.571111 -1.66081,22.505484 -0.21865,1.517394 0.39858,0.03826 1.37163,-3.286998 1.95744,-6.689323 2.96424,-8.50361 2.25291,-4.059856 -0.2542,1.588047 -0.60781,4.998738 -0.78581,7.579315 -0.17799,2.580579 -0.64199,5.77515 -1.03109,7.099048 -0.60036,2.04266 -0.55275,2.27869 0.31447,1.55896 0.56207,-0.466479 1.21883,-1.468469 1.45946,-2.226638 0.24063,-0.758172 0.70867,-1.37849 1.04007,-1.37849 0.5252,0 -0.068,2.535579 -1.77327,7.57931 -0.47619,1.408459 -0.46078,1.410229 0.6316,0.0726 0.61584,-0.75411 2.11953,-3.98939 3.34154,-7.189531 z m -9.60542,-22.839368 c 0.20765,-0.794022 0.50207,-1.44368 0.65427,-1.44368 0.1522,0 0.27673,0.649658 0.27673,1.44368 0,0.794023 -0.29442,1.443681 -0.65426,1.443681 -0.35985,0 -0.48438,-0.649658 -0.27674,-1.443681 z m -82.84871,17.68507 c -0.73156,-6.352188 -1.34524,-11.630641 -1.36374,-11.729894 -0.0185,-0.09925 -0.99976,-0.180459 -2.1806,-0.180459 -2.61234,0 -4.21563,2.625794 -4.84428,7.933682 -0.34974,2.953051 -0.1163,4.030181 1.43867,6.63821 1.93489,3.24525 7.5489,9.67322 8.01298,9.174779 0.1469,-0.157789 -0.33146,-5.484129 -1.06303,-11.836318 z m 97.26592,2.391088 c -0.23043,-0.575826 -0.40148,-0.404786 -0.43611,0.43612 -0.0313,0.760931 0.13926,1.18727 0.37912,0.94741 0.23986,-0.239858 0.2655,-0.862449 0.057,-1.38352 z m -23.09887,-2.887353 c -0.23043,-0.575834 -0.40147,-0.404794 -0.43611,0.436115 -0.0313,0.760934 0.13926,1.187273 0.37913,0.947415 0.23986,-0.239869 0.2655,-0.862455 0.0569,-1.38353 z m -5.28493,-0.947415 c -0.22853,-0.595516 -0.8578,-1.082757 -1.39837,-1.082757 -0.57711,0 -0.81135,0.447006 -0.56739,1.082757 0.22853,0.595519 0.85779,1.08276 1.39837,1.08276 0.57711,0 0.81135,-0.447006 0.56739,-1.08276 z m -0.47764,-4.691957 c 0.563,0 0.81961,-0.330126 0.57024,-0.733613 -0.24937,-0.403487 -0.7765,-0.533929 -1.1714,-0.289869 -0.45353,0.280297 -0.56781,-0.579485 -0.31025,-2.334205 l 0.40775,-2.77795 -1.00198,2.138582 c -0.5511,1.176216 -0.84153,2.556732 -0.6454,3.067817 0.47052,1.226175 -0.36871,1.183371 -1.63549,-0.08341 -0.86897,-0.868974 -0.86166,-1.070589 0.0515,-1.42103 0.76025,-0.291732 1.06423,-1.548836 1.06423,-4.401148 0,-2.196026 -0.29442,-3.992769 -0.65426,-3.992769 -0.35985,0 -0.47109,-0.700452 -0.24722,-1.556554 0.2789,-1.066483 0.14399,-1.393973 -0.4285,-1.040157 -0.45954,0.284015 -0.83554,1.13946 -0.83554,1.900995 0,0.761526 -0.76366,3.422189 -1.69703,5.912572 -0.93336,2.490391 -1.91369,5.698794 -2.17851,7.129791 l -0.48148,2.601811 4.08483,-2.060432 c 2.24666,-1.133237 4.54547,-2.060432 5.10847,-2.060432 z m 2.74303,3.6092 c 0.24537,-0.397013 0.1213,-0.721842 -0.27572,-0.721842 -0.39701,0 -0.92259,0.324829 -1.16795,0.721842 -0.24537,0.39701 -0.12129,0.721839 0.27572,0.721839 0.39701,0 0.92259,-0.324829 1.16795,-0.721839 z m 6.36973,-12.690287 c 0.5297,-8.944986 0.15119,-19.696549 -0.6647,-18.880659 -0.16695,0.166947 -0.62394,3.666244 -1.01554,7.776218 -0.55337,5.807747 -0.5118,7.599831 0.18661,8.043336 0.65757,0.417576 0.59042,0.573617 -0.25034,0.581708 -0.72358,0.0072 -1.48616,1.14686 -2.05976,3.078871 -0.50094,1.687298 -1.35032,4.129405 -1.8875,5.426898 -1.34514,3.249007 -1.33132,3.303511 0.91367,3.604157 1.09503,0.146651 2.13894,0.414613 2.3198,0.595469 1.30371,1.303713 1.92907,-1.298229 2.45776,-10.225998 z m -53.1547,7.186028 c 0.67819,-1.76733 -0.84838,-2.70183 -2.20215,-1.348063 -1.56926,1.569262 -1.48863,2.190869 0.3017,2.32573 0.81534,0.06143 1.67054,-0.378534 1.90045,-0.977667 z M 127.80256,63.4775 c 1.49131,-0.325514 1.50897,-0.455877 0.54995,-4.057756 -0.54498,-2.04679 -0.99472,-4.614714 -0.99943,-5.706496 -0.0165,-3.807857 -1.22771,-1.945908 -2.11314,3.248279 -0.49066,2.878333 -1.0674,5.850919 -1.28167,6.605749 -0.31609,1.113581 -0.13562,1.26625 0.95696,0.809476 0.74059,-0.309618 2.03988,-0.714282 2.88733,-0.899252 z m 8.19608,-3.267697 c -0.0123,-3.640373 -0.83413,-7.759774 -1.54805,-7.759774 -0.86477,0 -1.8204,2.646683 -2.43468,6.74297 l -0.50429,3.362782 h 2.24749 c 2.05601,0 2.2468,-0.199847 2.23953,-2.345978 z m 57.83054,-12.563827 c -0.59166,-2.517465 -0.65294,-2.305894 -0.65966,2.277613 -0.006,4.224062 0.1008,4.679283 0.65226,2.775265 0.39516,-1.364385 0.39813,-3.390379 0.007,-5.052878 z m -43.71732,1.530755 -0.98308,-3.584178 -0.0645,3.368585 c -0.0401,2.092613 0.27723,3.490645 0.83775,3.690832 1.29119,0.461139 1.29089,0.466021 0.20987,-3.475239 z m -14.82711,-0.09529 c 0,-3.021129 -0.47619,-2.892224 -1.41557,0.383196 -0.51173,1.784321 -0.4306,2.263553 0.3832,2.263553 0.70756,0 1.03237,-0.832723 1.03237,-2.646749 z m 26.73087,383.236669 c 0.0126,-0.29777 0.80904,-1.43465 1.76998,-2.52646 1.18749,-1.34919 2.45193,-1.98506 3.9473,-1.98506 3.33301,0 2.63244,-1.32173 -0.86767,-1.63698 -1.98588,-0.17885 -1.2858,-0.30464 1.98505,-0.35665 4.22475,-0.0672 4.75712,0.0484 3.24828,0.70567 -1.48702,0.64772 -1.58229,0.83952 -0.54138,1.08992 0.69477,0.16716 1.26322,0.76732 1.26322,1.33374 0,0.56642 0.32483,1.02984 0.72184,1.02984 0.39701,0 0.72184,0.64965 0.72184,1.44367 0,1.33046 -0.48123,1.44367 -6.13563,1.44367 -3.3746,0 -6.12538,-0.2436 -6.11283,-0.54136 z m 72.99696,-0.90231 c 0,-0.99253 0.16384,-1.39856 0.36408,-0.90231 0.20025,0.49628 0.20025,1.30834 0,1.80462 -0.20024,0.49625 -0.36408,0.0902 -0.36408,-0.90231 z m -4.58036,-137.6426 c 0.52108,-0.20852 1.14367,-0.18288 1.38353,0.0569 0.23986,0.23988 -0.18648,0.41048 -0.94741,0.37913 -0.84091,-0.0346 -1.01195,-0.20569 -0.43612,-0.43609 z M 36.57128,270.98696 c 0.18315,-0.49627 0.900649,-2.62868 1.59445,-4.73871 0.693791,-2.11004 1.38851,-3.70937 1.543799,-3.55407 0.36608,0.36608 -2.609919,9.19509 -3.099379,9.19509 -0.204539,0 -0.222031,-0.40605 -0.0389,-0.90231 z M 266.09,250.84814 c -2.08261,-6.01445 -3.67434,-11.04759 -3.53716,-11.18477 0.35865,-0.35865 6.87194,16.97813 7.42897,19.77415 0.90694,4.55226 -0.14578,2.22883 -3.89181,-8.58938 z m -113.29447,1.16061 c -2.53868,-2.53868 -2.56687,-2.54678 -4.07839,-1.17296 -2.95903,2.68947 -7.65768,4.0919 -7.65768,2.28564 0,-0.39701 0.78551,-0.72184 1.74556,-0.72184 0.96006,0 2.27321,-0.20248 2.91811,-0.44995 1.37875,-0.52908 4.47306,-6.24876 3.54825,-6.55877 -3.11445,-1.04399 -5.68548,-2.93415 -5.68548,-4.1798 0,-1.30847 0.50703,-1.45093 5.4138,-1.5211 6.41039,-0.0917 8.66207,0.57785 8.66207,2.5756 0,1.11749 -0.74689,1.63922 -3.24828,2.26908 -3.77621,0.95086 -4.0895,2.07211 -1.60789,5.75456 1.08,1.60262 2.62118,2.72978 4.51149,3.29955 l 2.87112,0.8654 -2.41816,0.0555 c -1.84855,0.0424 -3.02032,-0.54669 -4.97452,-2.50088 z m 24.60404,-4.69194 c -6.63372,-1.31243 -10.89513,-4.89704 -14.76444,-12.41952 -2.57933,-5.01459 -2.68467,-11.39133 -0.22876,-13.84725 1.33222,-1.33222 4.80639,-1.48093 7.01267,-0.30017 2.33909,1.25185 14.01456,13.26083 15.28945,15.7262 0.61228,1.184 1.16661,3.51508 1.23185,5.18017 0.0973,2.48237 -0.23561,3.33213 -1.84895,4.71987 -2.11751,1.8214 -2.18931,1.8315 -6.69182,0.9407 z m -55.13885,-4.36843 c -2.26537,-0.83327 -4.30012,-4.1363 -4.30012,-6.98043 0,-2.96841 3.73329,-7.43247 9.66442,-11.55616 7.2082,-5.01159 9.14252,-5.9363 12.42026,-5.93754 4.07545,-0.001 5.74056,1.91973 5.60108,6.46277 -0.14162,4.61307 -1.39793,6.76172 -7.25594,12.40974 -6.15904,5.93824 -10.81687,7.55584 -16.1297,5.60162 z m 138.31475,-9.00726 c -0.26551,-1.05787 -0.34353,-2.0626 -0.17338,-2.23275 0.17015,-0.17015 0.52659,0.55617 0.7921,1.61403 0.2655,1.05786 0.34353,2.0626 0.17338,2.23275 -0.17015,0.17015 -0.52659,-0.55617 -0.7921,-1.61403 z m -85.77001,-15.49445 -7.75977,-5.04856 v -6.44289 c 0,-3.54358 0.2918,-6.62323 0.64845,-6.84365 0.35664,-0.22042 1.6682,0.55183 2.91457,1.71612 l 2.26613,2.11689 0.42393,-2.11964 c 0.39204,-1.96019 0.66324,-2.11964 3.60517,-2.11964 4.02902,0 7.25521,1.34404 10.13233,4.22116 5.06167,5.06167 5.84606,13.36362 1.6583,17.55138 -3.12408,3.12407 -5.08666,2.69576 -13.88911,-3.03117 z m -55.14349,1.46949 c -2.50469,-0.99988 -3.86689,-3.62422 -3.86689,-7.44973 0,-6.80782 4.0727,-11.68825 11.49072,-13.76964 5.5293,-1.55145 5.83343,-1.49815 5.83343,1.02226 0,1.96194 0.17929,2.13427 1.79787,1.72803 2.195,-0.55091 2.36512,-0.12534 2.69168,6.73331 l 0.24886,5.2268 -4.37607,1.45627 c -2.40685,0.80094 -5.50316,2.21974 -6.88071,3.15289 -3.21247,2.17611 -5.01232,2.6689 -6.93889,1.89981 z m 110.29773,-0.72119 c 0,-0.99253 0.16384,-1.39857 0.36409,-0.9023 0.20024,0.49626 0.20024,1.30833 0,1.8046 -0.20025,0.49626 -0.36409,0.0902 -0.36409,-0.9023 z m 25.56289,-1.85616 c -0.2655,-1.05787 -0.34353,-2.0626 -0.17338,-2.23275 0.17015,-0.17015 0.52659,0.55617 0.7921,1.61403 0.26551,1.05786 0.34353,2.0626 0.17338,2.23275 -0.17015,0.17015 -0.52659,-0.55617 -0.7921,-1.61403 z m -87.73311,-19.13183 c -0.0121,-0.62556 -0.83402,-1.90028 -1.82655,-2.83272 -1.6064,-1.50913 -1.8046,-2.27612 -1.8046,-6.9833 0,-2.90838 -0.18175,-5.28797 -0.4039,-5.28797 -0.92611,0 -6.8145,5.43388 -6.8145,6.28849 0,0.51145 -0.40603,0.96229 -0.9023,1.00186 -0.49626,0.0396 -0.0902,0.29811 0.9023,0.57452 1.07164,0.29846 -0.68746,0.52435 -4.33104,0.55618 -4.50091,0.0393 -7.52995,0.52546 -11.36897,1.82465 l -5.23334,1.77106 -0.007,-3.30148 c -0.0127,-5.81064 1.67749,-24.94335 2.23709,-25.3239 0.29702,-0.20197 0.65055,-1.50128 0.78565,-2.88736 l 0.24562,-2.52013 6.81498,6.78516 c 3.74825,3.73183 6.94085,6.40761 7.09466,5.94616 0.15381,-0.46144 3.09106,-3.15599 6.52721,-5.98789 l 6.24756,-5.1489 0.68286,2.45101 c 0.37556,1.34806 0.9073,2.61343 1.18164,2.81194 0.27433,0.1985 0.20821,3.60919 -0.14695,7.57931 -0.65674,7.34131 -0.43037,11.75547 0.91387,17.82034 0.52265,2.35809 0.51929,3.7801 -0.0111,4.69196 -0.62405,1.07289 -0.765,1.10367 -0.78299,0.17101 z m 80.15923,-4.0369 c -0.0313,-0.4638 -0.24393,-1.43828 -0.47242,-2.16552 -0.39488,-1.25688 -0.37451,-1.25845 0.41201,-0.0318 0.45509,0.70973 0.66768,1.68421 0.47241,2.16552 -0.25624,0.6316 -0.37087,0.64046 -0.412,0.0318 z M 171.0634,180.21563 c -0.27833,-2.18357 -0.40291,-6.18038 -0.27683,-8.88181 l 0.22923,-4.91169 10.46668,-3.479 c 14.44382,-4.80095 26.99307,-10.5238 33.02216,-15.05913 l 3.43074,-2.58074 -3.91585,4.28261 c -5.27917,5.77363 -5.43305,5.92568 -4.69927,4.64353 0.34082,-0.59551 -0.86618,0.0541 -2.68222,1.44368 -1.81604,1.38955 -5.2143,3.98607 -7.55171,5.77007 -14.19935,10.8375 -26.9036,21.03648 -27.18744,21.8261 -0.18118,0.50407 -0.55715,-0.87006 -0.83549,-3.05362 z m -5.46139,-20.48405 c 0,-0.14989 0.56845,-0.71833 1.26322,-1.26322 1.14488,-0.89787 1.17041,-0.87234 0.27253,0.27254 -0.94299,1.20241 -1.53575,1.58479 -1.53575,0.99068 z m -63.95139,-19.39759 -1.37509,-1.62414 1.62414,1.3751 c 1.52628,1.29225 1.95274,1.87318 1.37509,1.87318 -0.13697,0 -0.86784,-0.73086 -1.62414,-1.62414 z m 110.14912,-6.31235 c 1.38954,-1.25155 3.82575,-3.25513 5.4138,-4.45241 2.80749,-2.11667 2.79751,-2.09412 -0.36092,0.81503 -1.78656,1.64555 -4.22277,3.64913 -5.4138,4.45241 -1.89736,1.27964 -1.85267,1.17872 0.36092,-0.81503 z M 96.712741,133.50765 c -0.391731,-1.02877 -0.308822,-1.11168 0.40408,-0.40409 0.493318,0.48966 0.71511,1.07211 0.49286,1.29436 -0.222242,0.22224 -0.625872,-0.17838 -0.89694,-0.89027 z m 111.928949,-6.79838 c -0.58231,-2.91155 -0.45466,-13.45641 0.19096,-15.77429 0.42452,-1.5241 0.62952,-1.20189 1.38601,2.1785 0.4883,2.18193 1.50115,4.9757 2.25079,6.20839 l 1.36298,2.24123 -2.1137,3.70096 c -1.16255,2.03552 -2.22895,3.70096 -2.3698,3.70096 -0.14085,0 -0.45911,-1.01509 -0.70724,-2.25575 z m 1.67447,-9.79713 c -1.29865,-4.6383 -1.61139,-3.28553 -0.55578,2.40404 0.6725,3.62466 0.98918,4.39063 1.1783,2.85 0.14224,-1.15879 -0.13789,-3.5231 -0.62252,-5.25404 z m 6.14585,8.39566 c -0.26168,-0.42343 -0.32098,-0.92468 -0.13177,-1.11389 0.18921,-0.18922 0.53637,0.15722 0.77147,0.76986 0.48809,1.27196 0.0721,1.49569 -0.6397,0.34403 z m -137.188409,-3.0198 -1.3751,-1.62414 1.624139,1.3751 c 1.526289,1.29225 1.952749,1.87318 1.37509,1.87318 -0.13697,0 -0.867831,-0.73086 -1.624129,-1.62414 z m 68.462879,-1.33495 c -1.6873,-1.19509 -3.06782,-2.3331 -3.06782,-2.52893 0,-0.19583 1.38052,0.58587 3.06782,1.73709 1.6873,1.15123 3.55506,2.27809 4.15058,2.50413 0.96245,0.36532 0.96245,0.41374 0,0.43579 -0.59552,0.0136 -2.46328,-0.953 -4.15058,-2.14808 z m 6.90259,1.74416 c 0.52107,-0.20852 1.14366,-0.18288 1.38353,0.057 0.23986,0.23986 -0.18648,0.41046 -0.94742,0.37912 -0.8409,-0.0346 -1.01194,-0.20568 -0.43611,-0.4361 z m -78.63724,-4.37932 c -0.89788,-1.14488 -0.87235,-1.17042 0.272531,-0.27254 0.69477,0.54488 1.263219,1.11333 1.263219,1.26322 0,0.5941 -0.592759,0.21172 -1.53575,-0.99068 z m 66.40923,-1.44368 c -0.89787,-1.14488 -0.87234,-1.17042 0.27254,-0.27254 0.69477,0.54488 1.26322,1.11333 1.26322,1.26322 0,0.5941 -0.59277,0.21172 -1.53576,-0.99068 z m -3.60919,-2.88736 c -0.89788,-1.14488 -0.87235,-1.17041 0.27253,-0.27254 0.69477,0.54488 1.26322,1.11333 1.26322,1.26322 0,0.5941 -0.59277,0.21172 -1.53575,-0.99068 z m 67.36388,-5.59426 c 0.0147,-1.19103 0.17648,-1.59089 0.3595,-0.88856 0.18302,0.70233 0.17098,1.67681 -0.0268,2.16552 -0.19773,0.48871 -0.34747,-0.0859 -0.33276,-1.27696 z m 0.77771,-6.13563 c 0,-1.78656 0.14078,-2.517417 0.31283,-1.62414 0.17205,0.89327 0.17205,2.355 0,3.24827 -0.17205,0.89328 -0.31283,0.16242 -0.31283,-1.62413 z M 179.72429,81.535204 c -0.39173,-1.028761 -0.30882,-1.111681 0.40408,-0.40408 0.49332,0.489649 0.71511,1.0721 0.49286,1.29435 -0.22225,0.22225 -0.62587,-0.178382 -0.89694,-0.89027 z M 139.80998,51.227961 c 0.70233,-0.183015 1.67681,-0.170982 2.16552,0.02671 0.4887,0.197733 -0.0859,0.347472 -1.27696,0.332761 -1.19103,-0.01474 -1.59089,-0.176491 -0.88856,-0.359506 z m 88.67271,-12.390443 c -2.29537,-7.557011 -9.46082,-21.200539 -15.18233,-28.9082066 -5.43421,-7.3206521 -5.45808,-7.4629211 -1.85687,-11.0641361 2.61139,-2.611393 6.18173,-3.662531 11.20591,-3.2991149 9.8221,0.710466 19.40188,11.7468708 20.45999,23.5709636 0.44549,4.978266 0.34427,5.534649 -1.64149,9.022993 -1.16394,2.044671 -2.61473,5.641303 -3.22397,7.992517 -1.26145,4.86831 -2.73866,6.683971 -5.96261,7.32876 -2.24994,0.449988 -2.25232,0.447072 -3.79863,-4.643776 z M 207.31326,27.141826 C 203.07149,24.669264 189.75265,5.2317383 189.28989,0.83849832 c -0.21574,-2.04817702 -0.0912,-2.16165802 2.29834,-2.09428102 2.96136,0.0835 11.03663,5.3910329 13.88112,9.123475 7.31016,9.5921407 8.61395,23.2204397 1.84391,19.2741337 z M 98.07816,16.054912 c -4.801859,-2.469785 -6.825631,-3.998671 -6.825631,-5.156529 0,-0.602441 -0.72559,-2.0767587 -1.612418,-3.2762608 -1.26805,-1.7151389 -1.609,-3.1398239 -1.59644,-6.67086188 C 88.08167,-9.7165337 95.76952,-19.308012 107.31275,-23.089 c 5.5475,-1.817082 12.08544,-2.210055 15.47327,-0.930045 3.8407,1.451117 10.33321,8.883388 10.33321,11.828897 0,1.120041 -0.88595,1.982885 -3.18073,3.0977754 -5.19041,2.521695 -15.14009,9.94356393 -18.83218,14.0476948 -1.89176,2.1028772 -4.69498,5.6710268 -6.22938,7.9292228 -1.5344,2.258197 -3.03501,4.233165 -3.33469,4.38882 -0.29969,0.155655 -1.858529,-0.392649 -3.46409,-1.218453 z m 27.96704,-4.172268 c -0.47642,-0.476414 -0.86621,-2.0369576 -0.86621,-3.4678748 0,-7.2137829 12.13903,-17.693526 21.52878,-18.5860152 2.68895,-0.255582 3.77805,-0.0023 5.35975,1.2463054 4.23532,3.3434988 1.37252,7.9012379 -9.20346,14.6524038 -10.10907,6.4531118 -14.80307,8.1709708 -16.81886,6.1551808 z m 48.5798,-1.299311 c -0.71858,-0.7940238 -1.92424,-1.4436788 -2.67924,-1.4436788 -1.27439,0 -1.29223,-0.1149419 -0.24905,-1.6042928 1.72167,-2.4580321 1.41299,-3.1467462 -2.48551,-5.5455151 -5.8913,-3.624961 -4.37644,-5.154949 3.6787,-3.715415 7.8712,1.40666104 10.62535,5.0947419 4.64274,6.2170859 -1.42011,0.2664161 -3.05775,1.163574 -3.63919,1.9936862 -0.96601,1.379174 -0.89061,1.683121 0.87456,3.5255506 1.06243,1.108942 1.75885,2.016258 1.5476,2.016258 -0.21126,0 -0.97202,-0.649656 -1.69061,-1.443679 z m -3.24828,-11.54943266 c 0,-0.39701204 -0.66882,-0.72184004 -1.48628,-0.72184004 -0.81745,0 -1.28552,0.324828 -1.04016,0.72184004 0.24537,0.39701099 0.9142,0.72183899 1.48629,0.72183899 0.57208,0 1.04015,-0.324828 1.04015,-0.72183899 z"
         id="path10416" />
    </clipPath>
  </defs>
  <g
     inkscape:label="Layer 1"
     inkscape:groupmode="layer"
     id="layer1">
    <rect
       style="fill:#ffffff;fill-opacity:1;stroke:#ffffff;stroke-width:0.0588403"
       id="rect10001"
       width="317.5"
       height="114.9361"
       x="1.2434498e-14"
       y="9.7699626e-15" />
    <rect
       style="fill:#000000;fill-opacity:1;stroke:#ffffff;stroke-width:0.0588403"
       id="rect10001-2"
       width="317.5"
       height="114.9361"
       x="1.2434498e-14"
       y="9.7699626e-15"
       clip-path="url(#clipPath10414)" />
    <rect
       style="fill:#000000;fill-opacity:1;stroke:#ffffff;stroke-width:0.0461257"
       id="rect9562"
       width="317.38879"
       height="94.132286"
       x="0.00022875456"
       y="71.76783"
       clip-path="url(#clipPath9919)"
       transform="matrix(1.0081189,0,0,0.78825538,0.11117782,37.44396)" />
    <rect
       style="fill:none;fill-opacity:1;stroke:#ffffff;stroke-width:0.798105;stroke-miterlimit:4;stroke-dasharray:none"
       id="rect10694"
       width="94.535774"
       height="24.150112"
       x="38.911327"
       y="123.1785" />
    <text
       xml:space="preserve"
       style="font-size:16.5257px;line-height:1.25;font-family:'Noto Sans JP';-inkscape-font-specification:'Noto Sans JP';stroke-width:0.413144"
       x="52.679787"
       y="142.80559"
       id="text13583"><tspan
         sodipodi:role="line"
         id="tspan13581"
         style="font-style:normal;font-variant:normal;font-weight:bold;font-stretch:normal;font-family:'Noto Sans JP';-inkscape-font-specification:'Noto Sans JP Bold';fill:#ffffff;stroke-width:0.413144"
         x="52.679787"
         y="142.80559">秘密結社</tspan></text>
    <text
       xml:space="preserve"
       style="font-size:16.5257px;line-height:1.25;font-family:'Noto Sans JP';-inkscape-font-specification:'Noto Sans JP';stroke-width:0.413144"
       x="140.31868"
       y="143.0471"
       id="text13583-2"><tspan
         sodipodi:role="line"
         id="tspan13581-1"
         style="font-style:normal;font-variant:normal;font-weight:bold;font-stretch:normal;font-family:'Noto Sans JP';-inkscape-font-specification:'Noto Sans JP Bold';fill:#ffffff;stroke-width:0.413144"
         x="140.31868"
         y="143.0471">びっくりカンパニー</tspan></text>
    <text
       xml:space="preserve"
       style="font-size:6.91427px;line-height:1.25;font-family:'Noto Sans CJK JP';-inkscape-font-specification:'Noto Sans CJK JP';stroke-width:0.172857"
       x="109.63428"
       y="157.14966"
       id="text12811"><tspan
         sodipodi:role="line"
         id="tspan12809"
         style="font-style:normal;font-variant:normal;font-weight:normal;font-stretch:normal;font-family:Michroma;-inkscape-font-specification:Michroma;fill:#ffffff;stroke:#ffffff;stroke-width:0.172857"
         x="109.63428"
         y="157.14966">Powered by Sasakulab.com</tspan></text>
  </g>
</svg>
